<svg xmlns="http://www.w3.org/2000/svg" xmlns:xlink="http://www.w3.org/1999/xlink" width="500" zoomAndPan="magnify" viewBox="0 0 375 374.999991" height="500" preserveAspectRatio="xMidYMid meet" version="1.0"><defs><g/><clipPath id="id1"><path d="M 98.269531 45 L 168 45 L 168 97 L 98.269531 97 Z M 98.269531 45 " clip-rule="nonzero"/></clipPath><clipPath id="id2"><path d="M 98.269531 76 L 201 76 L 201 242 L 98.269531 242 Z M 98.269531 76 " clip-rule="nonzero"/></clipPath><clipPath id="id3"><path d="M 197 79 L 276.769531 79 L 276.769531 208 L 197 208 Z M 197 79 " clip-rule="nonzero"/></clipPath></defs><g clip-path="url(#id1)"><path fill="#7ed957" d="M 167.121094 94.816406 L 147.867188 50.140625 L 146.605469 49.410156 C 136.632812 43.652344 124.347656 43.652344 114.378906 49.410156 C 104.628906 55.039062 98.542969 65.332031 98.277344 76.550781 C 120.3125 77.296875 140.640625 84.777344 157.261719 97 C 160.480469 95.933594 163.773438 95.199219 167.121094 94.816406 " fill-opacity="1" fill-rule="nonzero"/></g><g clip-path="url(#id2)"><path fill="#008037" d="M 192.214844 188.945312 C 186.011719 191.621094 179.460938 192.976562 172.75 192.976562 C 153.066406 192.976562 135.3125 181.296875 127.519531 163.21875 C 122.316406 151.144531 122.125 137.765625 126.984375 125.546875 C 131.84375 113.328125 141.171875 103.730469 153.25 98.53125 C 154.570312 97.957031 155.910156 97.453125 157.261719 97 C 140.640625 84.777344 120.3125 77.296875 98.277344 76.550781 C 98.269531 76.804688 98.261719 77.0625 98.261719 77.320312 L 98.261719 209.011719 C 98.261719 220.523438 104.40625 231.164062 114.378906 236.917969 C 124.347656 242.675781 136.632812 242.675781 146.605469 236.917969 L 197.433594 207.574219 C 199.253906 200.140625 200.289062 192.398438 200.445312 184.4375 C 197.878906 186.179688 195.125 187.691406 192.214844 188.945312 " fill-opacity="1" fill-rule="nonzero"/></g><g clip-path="url(#id3)"><path fill="#7ed957" d="M 260.660156 115.253906 L 198.628906 79.449219 L 217.941406 124.253906 C 223.148438 136.332031 223.335938 149.710938 218.476562 161.925781 C 214.789062 171.203125 208.527344 178.960938 200.445312 184.4375 C 200.289062 192.398438 199.253906 200.140625 197.433594 207.574219 L 260.660156 171.074219 C 270.632812 165.316406 276.773438 154.675781 276.773438 143.164062 C 276.773438 131.652344 270.632812 121.011719 260.660156 115.253906 " fill-opacity="1" fill-rule="nonzero"/></g><path fill="#c9e265" d="M 137.308594 159 C 145.738281 178.566406 168.433594 187.589844 188 179.160156 C 192.5625 177.191406 196.554688 174.449219 199.886719 171.144531 C 197.179688 145.398438 185.25 122.402344 167.453125 105.519531 C 164.089844 105.988281 160.734375 106.910156 157.464844 108.316406 C 137.902344 116.746094 128.878906 139.441406 137.308594 159 " fill-opacity="1" fill-rule="nonzero"/><path fill="#c9e265" d="M 199.886719 171.144531 C 210.820312 160.304688 214.617188 143.46875 208.15625 128.472656 L 176.582031 55.179688 C 237.527344 32.050781 252.488281 89.839844 252.488281 89.839844 C 252.488281 89.839844 253.265625 55.515625 226.378906 37.816406 C 192.433594 15.46875 152.535156 34.011719 152.535156 34.011719 L 165.488281 64.0625 L 183.902344 106.824219 C 178.652344 105.230469 173.042969 104.746094 167.453125 105.519531 C 185.25 122.402344 197.179688 145.398438 199.886719 171.144531 " fill-opacity="1" fill-rule="nonzero"/><g fill="#000000" fill-opacity="1"><g transform="translate(45.037133, 330.139625)"><g><path d="M 33.125 -37.5 C 32.925781 -39.570312 32.039062 -41.179688 30.46875 -42.328125 C 28.90625 -43.472656 26.796875 -44.046875 24.140625 -44.046875 C 21.410156 -44.046875 19.316406 -43.488281 17.859375 -42.375 C 16.398438 -41.257812 15.671875 -39.859375 15.671875 -38.171875 C 15.640625 -36.285156 16.453125 -34.859375 18.109375 -33.890625 C 19.765625 -32.921875 21.726562 -32.171875 24 -31.640625 L 28.734375 -30.5 C 31.785156 -29.820312 34.492188 -28.832031 36.859375 -27.53125 C 39.234375 -26.226562 41.101562 -24.550781 42.46875 -22.5 C 43.832031 -20.457031 44.515625 -17.96875 44.515625 -15.03125 C 44.492188 -10.21875 42.6875 -6.382812 39.09375 -3.53125 C 35.507812 -0.675781 30.503906 0.75 24.078125 0.75 C 17.691406 0.75 12.59375 -0.707031 8.78125 -3.625 C 4.976562 -6.539062 3.007812 -10.84375 2.875 -16.53125 L 13.640625 -16.53125 C 13.835938 -13.882812 14.878906 -11.894531 16.765625 -10.5625 C 18.660156 -9.238281 21.054688 -8.578125 23.953125 -8.578125 C 26.773438 -8.578125 29.03125 -9.175781 30.71875 -10.375 C 32.40625 -11.582031 33.257812 -13.144531 33.28125 -15.0625 C 33.257812 -16.84375 32.476562 -18.210938 30.9375 -19.171875 C 29.394531 -20.128906 27.195312 -20.953125 24.34375 -21.640625 L 18.609375 -23.078125 C 14.171875 -24.140625 10.664062 -25.828125 8.09375 -28.140625 C 5.519531 -30.453125 4.242188 -33.546875 4.265625 -37.421875 C 4.242188 -40.609375 5.09375 -43.394531 6.8125 -45.78125 C 8.539062 -48.175781 10.910156 -50.035156 13.921875 -51.359375 C 16.941406 -52.691406 20.367188 -53.359375 24.203125 -53.359375 C 28.117188 -53.359375 31.535156 -52.6875 34.453125 -51.34375 C 37.367188 -50.007812 39.640625 -48.148438 41.265625 -45.765625 C 42.898438 -43.390625 43.742188 -40.632812 43.796875 -37.5 Z M 33.125 -37.5 "/></g></g></g><g fill="#000000" fill-opacity="1"><g transform="translate(92.423726, 330.139625)"><g><path d="M 37.15625 -52.640625 L 48.21875 -52.640625 L 48.21875 -17.84375 C 48.21875 -13.863281 47.28125 -10.488281 45.40625 -7.71875 C 43.539062 -4.957031 40.96875 -2.851562 37.6875 -1.40625 C 34.40625 0.03125 30.640625 0.75 26.390625 0.75 C 22.140625 0.75 18.367188 0.03125 15.078125 -1.40625 C 11.796875 -2.851562 9.222656 -4.957031 7.359375 -7.71875 C 5.503906 -10.488281 4.578125 -13.863281 4.578125 -17.84375 L 4.578125 -52.640625 L 15.703125 -52.640625 L 15.703125 -18.21875 C 15.703125 -15.40625 16.71875 -13.191406 18.75 -11.578125 C 20.78125 -9.972656 23.328125 -9.171875 26.390625 -9.171875 C 29.515625 -9.171875 32.085938 -9.972656 34.109375 -11.578125 C 36.140625 -13.191406 37.15625 -15.40625 37.15625 -18.21875 Z M 37.15625 -52.640625 "/></g></g></g><g fill="#000000" fill-opacity="1"><g transform="translate(145.206854, 330.139625)"><g><path d="M 48.59375 -52.640625 L 48.59375 0 L 38.984375 0 L 16.09375 -33.125 L 15.703125 -33.125 L 15.703125 0 L 4.578125 0 L 4.578125 -52.640625 L 14.34375 -52.640625 L 37.0625 -19.53125 L 37.53125 -19.53125 L 37.53125 -52.640625 Z M 48.59375 -52.640625 "/></g></g></g><g fill="#000000" fill-opacity="1"><g transform="translate(198.401145, 330.139625)"><g><path d="M 52.9375 -26.3125 C 52.9375 -20.570312 51.851562 -15.6875 49.6875 -11.65625 C 47.519531 -7.632812 44.578125 -4.566406 40.859375 -2.453125 C 37.140625 -0.335938 32.953125 0.71875 28.296875 0.71875 C 23.617188 0.71875 19.421875 -0.34375 15.703125 -2.46875 C 11.984375 -4.59375 9.046875 -7.671875 6.890625 -11.703125 C 4.734375 -15.742188 3.65625 -20.613281 3.65625 -26.3125 C 3.65625 -32.050781 4.734375 -36.929688 6.890625 -40.953125 C 9.046875 -44.984375 11.984375 -48.054688 15.703125 -50.171875 C 19.421875 -52.296875 23.617188 -53.359375 28.296875 -53.359375 C 32.953125 -53.359375 37.140625 -52.296875 40.859375 -50.171875 C 44.578125 -48.054688 47.519531 -44.984375 49.6875 -40.953125 C 51.851562 -36.929688 52.9375 -32.050781 52.9375 -26.3125 Z M 41.65625 -26.3125 C 41.65625 -31.90625 40.4375 -36.171875 38 -39.109375 C 35.570312 -42.046875 32.335938 -43.515625 28.296875 -43.515625 C 24.253906 -43.515625 21.015625 -42.046875 18.578125 -39.109375 C 16.148438 -36.171875 14.9375 -31.90625 14.9375 -26.3125 C 14.9375 -20.75 16.148438 -16.492188 18.578125 -13.546875 C 21.015625 -10.597656 24.253906 -9.125 28.296875 -9.125 C 32.335938 -9.125 35.570312 -10.597656 38 -13.546875 C 40.4375 -16.492188 41.65625 -20.75 41.65625 -26.3125 Z M 41.65625 -26.3125 "/></g></g></g><g fill="#000000" fill-opacity="1"><g transform="translate(254.987528, 330.139625)"><g><path d="M 16.421875 0 L 1.359375 -52.640625 L 13.515625 -52.640625 L 22.234375 -16.0625 L 22.671875 -16.0625 L 32.28125 -52.640625 L 42.6875 -52.640625 L 52.28125 -15.984375 L 52.734375 -15.984375 L 61.453125 -52.640625 L 73.609375 -52.640625 L 58.546875 0 L 47.703125 0 L 37.671875 -34.40625 L 37.265625 -34.40625 L 27.265625 0 Z M 16.421875 0 "/></g></g></g></svg>