<svg xmlns="http://www.w3.org/2000/svg" xmlns:xlink="http://www.w3.org/1999/xlink" width="500" zoomAndPan="magnify" viewBox="0 0 375 374.999991" height="500" preserveAspectRatio="xMidYMid meet" version="1.0"><defs><clipPath id="id1"><path d="M 27 185 L 117 185 L 117 362.449219 L 27 362.449219 Z M 27 185 " clip-rule="nonzero"/></clipPath><clipPath id="id2"><path d="M 258 185 L 347 185 L 347 362.449219 L 258 362.449219 Z M 258 185 " clip-rule="nonzero"/></clipPath><clipPath id="id3"><path d="M 28 12.546875 L 347 12.546875 L 347 224 L 28 224 Z M 28 12.546875 " clip-rule="nonzero"/></clipPath><clipPath id="id4"><path d="M 142 187.5 L 233.386719 187.5 L 233.386719 278.886719 L 142 278.886719 Z M 142 187.5 " clip-rule="nonzero"/></clipPath></defs><g clip-path="url(#id1)"><path fill="#ff5e00" d="M 85.625 362.234375 C 80.785156 362.234375 76.011719 360.933594 71.746094 358.382812 C 65.496094 354.65625 61.066406 348.71875 59.277344 341.660156 L 28.472656 220.144531 C 26.6875 213.078125 27.75 205.746094 31.472656 199.488281 C 35.199219 193.230469 41.128906 188.796875 48.179688 187.007812 L 51.667969 186.121094 C 66.226562 182.421875 81.074219 191.273438 84.765625 205.847656 L 115.5625 327.371094 C 117.351562 334.4375 116.289062 341.769531 112.5625 348.027344 C 108.839844 354.285156 102.90625 358.714844 95.859375 360.507812 L 92.371094 361.394531 C 90.136719 361.957031 87.875 362.234375 85.625 362.234375 Z M 58.363281 195.449219 C 56.976562 195.449219 55.566406 195.617188 54.164062 195.976562 L 50.679688 196.863281 C 46.257812 197.992188 42.53125 200.769531 40.203125 204.695312 C 37.867188 208.621094 37.203125 213.222656 38.320312 217.648438 L 69.117188 339.175781 C 70.242188 343.601562 73.019531 347.328125 76.9375 349.660156 C 80.859375 352 85.449219 352.664062 89.878906 351.542969 L 93.367188 350.65625 C 97.789062 349.53125 101.511719 346.753906 103.84375 342.828125 C 106.179688 338.902344 106.84375 334.300781 105.722656 329.875 L 74.925781 208.347656 C 72.964844 200.613281 65.988281 195.449219 58.363281 195.449219 Z M 58.363281 195.449219 " fill-opacity="1" fill-rule="nonzero"/></g><path fill="#ff5e00" d="M 53.78125 347.449219 C 37.066406 347.449219 21.796875 336.144531 17.503906 319.199219 L 2.453125 259.816406 C -0.0078125 250.117188 1.457031 240.042969 6.570312 231.441406 C 11.679688 222.847656 19.832031 216.753906 29.523438 214.292969 L 32.070312 213.648438 C 34.792969 212.957031 37.554688 214.605469 38.238281 217.324219 L 69.191406 339.472656 C 69.882812 342.191406 68.238281 344.957031 65.523438 345.648438 L 62.976562 346.296875 C 59.902344 347.078125 56.8125 347.449219 53.78125 347.449219 Z M 29.667969 224.859375 C 23.640625 226.96875 18.59375 231.089844 15.289062 236.648438 C 11.566406 242.910156 10.503906 250.253906 12.289062 257.316406 L 27.335938 316.703125 C 30.832031 330.492188 44.292969 339.152344 58.066406 336.945312 Z M 29.667969 224.859375 " fill-opacity="1" fill-rule="nonzero"/><g clip-path="url(#id2)"><path fill="#ff5e00" d="M 288.910156 362.226562 C 286.695312 362.226562 284.453125 361.957031 282.210938 361.386719 L 278.722656 360.5 C 271.675781 358.710938 265.738281 354.277344 262.019531 348.019531 C 258.292969 341.761719 257.230469 334.429688 259.019531 327.367188 L 289.816406 205.839844 C 291.605469 198.785156 296.03125 192.839844 302.28125 189.117188 C 308.53125 185.394531 315.859375 184.324219 322.914062 186.121094 L 326.402344 187.007812 C 333.453125 188.796875 339.390625 193.230469 343.109375 199.488281 C 346.832031 205.746094 347.894531 213.078125 346.109375 220.144531 L 315.3125 341.667969 C 312.191406 353.992188 301.078125 362.226562 288.910156 362.226562 Z M 316.191406 195.441406 C 313.15625 195.441406 310.164062 196.261719 307.484375 197.855469 C 303.5625 200.195312 300.785156 203.914062 299.664062 208.339844 L 268.863281 329.867188 C 267.742188 334.292969 268.410156 338.894531 270.746094 342.820312 C 273.082031 346.746094 276.800781 349.523438 281.222656 350.648438 L 284.710938 351.539062 C 293.839844 353.855469 303.148438 348.304688 305.464844 339.167969 L 336.261719 217.640625 C 337.386719 213.214844 336.714844 208.613281 334.378906 204.6875 C 332.042969 200.761719 328.328125 197.984375 323.90625 196.859375 L 320.417969 195.96875 C 319.023438 195.617188 317.601562 195.441406 316.191406 195.441406 Z M 316.191406 195.441406 " fill-opacity="1" fill-rule="nonzero"/></g><path fill="#ff5e00" d="M 320.808594 347.449219 C 317.769531 347.449219 314.6875 347.078125 311.613281 346.296875 L 309.066406 345.648438 C 306.351562 344.957031 304.707031 342.191406 305.398438 339.472656 L 336.351562 217.328125 C 337.042969 214.613281 339.804688 212.964844 342.519531 213.65625 L 345.066406 214.300781 C 354.753906 216.761719 362.910156 222.847656 368.019531 231.449219 C 373.132812 240.042969 374.597656 250.125 372.136719 259.824219 L 357.09375 319.210938 C 352.792969 336.144531 337.523438 347.449219 320.808594 347.449219 Z M 316.511719 336.9375 C 330.277344 339.152344 343.746094 330.484375 347.238281 316.695312 L 362.285156 257.308594 C 365.78125 243.523438 358.066406 229.476562 344.910156 224.855469 Z M 316.511719 336.9375 " fill-opacity="1" fill-rule="nonzero"/><g clip-path="url(#id3)"><path fill="#ff5e00" d="M 341.265625 223.660156 C 338.464844 223.660156 336.1875 221.382812 336.1875 218.578125 L 336.1875 171.960938 C 336.1875 132.152344 320.703125 94.71875 292.578125 66.566406 C 264.457031 38.417969 227.0625 22.914062 187.292969 22.914062 C 147.523438 22.914062 110.125 38.417969 82.003906 66.566406 C 53.882812 94.71875 38.394531 132.152344 38.394531 171.960938 L 38.394531 218.578125 C 38.394531 221.382812 36.121094 223.660156 33.316406 223.660156 C 30.511719 223.660156 28.238281 221.382812 28.238281 218.578125 L 28.238281 171.960938 C 28.238281 129.433594 44.78125 89.445312 74.824219 59.375 C 104.863281 29.304688 144.808594 12.746094 187.292969 12.746094 C 229.78125 12.746094 269.726562 29.304688 299.765625 59.382812 C 329.800781 89.453125 346.351562 129.4375 346.351562 171.96875 L 346.351562 218.582031 C 346.34375 221.382812 344.078125 223.660156 341.265625 223.660156 Z M 341.265625 223.660156 " fill-opacity="1" fill-rule="nonzero"/></g><path fill="#ff5e00" d="M 57.929688 194.6875 C 55.128906 194.6875 52.851562 192.410156 52.851562 189.605469 L 52.851562 170.625 C 52.851562 96.414062 113.160156 36.042969 187.292969 36.042969 C 190.097656 36.042969 192.375 38.320312 192.375 41.128906 C 192.375 43.933594 190.097656 46.210938 187.292969 46.210938 C 118.765625 46.210938 63.007812 102.027344 63.007812 170.625 L 63.007812 189.605469 C 63.007812 192.410156 60.734375 194.6875 57.929688 194.6875 Z M 57.929688 194.6875 " fill-opacity="1" fill-rule="nonzero"/><path fill="#ff5e00" d="M 316.660156 194.6875 C 313.855469 194.6875 311.582031 192.410156 311.582031 189.605469 L 311.582031 170.625 C 311.582031 102.019531 255.824219 46.210938 187.292969 46.210938 C 184.492188 46.210938 182.214844 43.933594 182.214844 41.128906 C 182.214844 38.320312 184.492188 36.042969 187.292969 36.042969 C 261.429688 36.042969 321.738281 96.414062 321.738281 170.625 L 321.738281 189.605469 C 321.738281 192.410156 319.460938 194.6875 316.660156 194.6875 Z M 316.660156 194.6875 " fill-opacity="1" fill-rule="nonzero"/><g clip-path="url(#id4)"><path fill="#ff5e00" d="M 233.386719 233.191406 C 233.386719 234.691406 233.316406 236.183594 233.167969 237.671875 C 233.023438 239.160156 232.800781 240.640625 232.511719 242.109375 C 232.21875 243.574219 231.855469 245.023438 231.421875 246.457031 C 230.988281 247.890625 230.484375 249.296875 229.910156 250.679688 C 229.335938 252.0625 228.699219 253.414062 227.992188 254.734375 C 227.289062 256.054688 226.519531 257.335938 225.6875 258.578125 C 224.855469 259.824219 223.964844 261.023438 223.015625 262.179688 C 222.066406 263.335938 221.0625 264.445312 220.003906 265.503906 C 218.945312 266.5625 217.839844 267.566406 216.683594 268.515625 C 215.527344 269.464844 214.324219 270.355469 213.082031 271.1875 C 211.835938 272.015625 210.554688 272.785156 209.234375 273.492188 C 207.914062 274.195312 206.5625 274.835938 205.179688 275.410156 C 203.796875 275.980469 202.390625 276.484375 200.960938 276.917969 C 199.527344 277.355469 198.078125 277.714844 196.609375 278.007812 C 195.140625 278.300781 193.664062 278.519531 192.171875 278.667969 C 190.683594 278.8125 189.191406 278.886719 187.695312 278.886719 C 186.199219 278.886719 184.707031 278.8125 183.214844 278.667969 C 181.726562 278.519531 180.25 278.300781 178.78125 278.007812 C 177.3125 277.714844 175.863281 277.355469 174.429688 276.917969 C 173 276.484375 171.589844 275.980469 170.207031 275.410156 C 168.828125 274.835938 167.476562 274.195312 166.15625 273.492188 C 164.835938 272.785156 163.554688 272.015625 162.308594 271.1875 C 161.066406 270.355469 159.863281 269.464844 158.707031 268.515625 C 157.550781 267.566406 156.441406 266.5625 155.386719 265.503906 C 154.328125 264.445312 153.324219 263.335938 152.375 262.179688 C 151.425781 261.023438 150.535156 259.824219 149.703125 258.578125 C 148.871094 257.335938 148.101562 256.054688 147.398438 254.734375 C 146.691406 253.414062 146.050781 252.0625 145.480469 250.679688 C 144.90625 249.296875 144.402344 247.890625 143.96875 246.457031 C 143.535156 245.023438 143.171875 243.574219 142.878906 242.109375 C 142.585938 240.640625 142.367188 239.160156 142.222656 237.671875 C 142.074219 236.183594 142 234.691406 142 233.191406 C 142 231.695312 142.074219 230.203125 142.222656 228.714844 C 142.367188 227.226562 142.585938 225.746094 142.878906 224.277344 C 143.171875 222.8125 143.535156 221.363281 143.96875 219.929688 C 144.402344 218.496094 144.90625 217.089844 145.480469 215.707031 C 146.050781 214.324219 146.691406 212.972656 147.398438 211.652344 C 148.101562 210.332031 148.871094 209.050781 149.703125 207.808594 C 150.535156 206.5625 151.425781 205.363281 152.375 204.207031 C 153.324219 203.050781 154.328125 201.941406 155.386719 200.882812 C 156.441406 199.824219 157.550781 198.820312 158.707031 197.871094 C 159.863281 196.921875 161.066406 196.03125 162.308594 195.199219 C 163.554688 194.371094 164.835938 193.601562 166.15625 192.894531 C 167.476562 192.191406 168.828125 191.550781 170.207031 190.976562 C 171.589844 190.40625 173 189.902344 174.429688 189.46875 C 175.863281 189.03125 177.3125 188.671875 178.78125 188.378906 C 180.25 188.085938 181.726562 187.867188 183.214844 187.71875 C 184.707031 187.574219 186.199219 187.5 187.695312 187.5 C 189.191406 187.5 190.683594 187.574219 192.171875 187.71875 C 193.664062 187.867188 195.140625 188.085938 196.609375 188.378906 C 198.078125 188.671875 199.527344 189.03125 200.960938 189.46875 C 202.390625 189.902344 203.796875 190.40625 205.179688 190.976562 C 206.5625 191.550781 207.914062 192.191406 209.234375 192.894531 C 210.554688 193.601562 211.835938 194.371094 213.082031 195.199219 C 214.324219 196.03125 215.527344 196.921875 216.683594 197.871094 C 217.839844 198.820312 218.945312 199.824219 220.003906 200.882812 C 221.0625 201.941406 222.066406 203.050781 223.015625 204.207031 C 223.964844 205.363281 224.855469 206.5625 225.6875 207.808594 C 226.519531 209.050781 227.289062 210.332031 227.992188 211.652344 C 228.699219 212.972656 229.335938 214.324219 229.910156 215.707031 C 230.484375 217.089844 230.988281 218.496094 231.421875 219.929688 C 231.855469 221.363281 232.21875 222.8125 232.511719 224.277344 C 232.800781 225.746094 233.023438 227.226562 233.167969 228.714844 C 233.316406 230.203125 233.386719 231.695312 233.386719 233.191406 Z M 233.386719 233.191406 " fill-opacity="1" fill-rule="nonzero"/></g><path fill="#f1f6e1" d="M 218.996094 238.128906 C 218.082031 238.128906 217.394531 237.351562 217.394531 236.4375 L 217.394531 230.40625 C 217.394531 229.492188 218.082031 228.714844 218.996094 228.714844 C 219.910156 228.714844 220.59375 229.492188 220.59375 230.40625 L 220.59375 236.484375 C 220.59375 237.398438 219.910156 238.128906 218.996094 238.128906 Z M 218.996094 238.128906 " fill-opacity="1" fill-rule="nonzero"/><path fill="#f1f6e1" d="M 160.507812 238.128906 C 159.59375 238.128906 158.90625 237.351562 158.90625 236.4375 L 158.90625 230.40625 C 158.90625 229.492188 159.59375 228.714844 160.507812 228.714844 C 161.421875 228.714844 162.105469 229.492188 162.105469 230.40625 L 162.105469 236.484375 C 162.105469 237.398438 161.421875 238.128906 160.507812 238.128906 Z M 160.507812 238.128906 " fill-opacity="1" fill-rule="nonzero"/><path fill="#f1f6e1" d="M 173.300781 257.363281 C 172.34375 257.363281 171.703125 256.453125 171.703125 255.355469 L 171.703125 211.488281 C 171.703125 210.390625 172.34375 209.476562 173.300781 209.476562 C 174.261719 209.476562 174.902344 210.390625 174.902344 211.488281 L 174.902344 255.398438 C 174.902344 256.496094 174.214844 257.363281 173.300781 257.363281 Z M 173.300781 257.363281 " fill-opacity="1" fill-rule="nonzero"/><path fill="#f1f6e1" d="M 166.449219 246.628906 C 165.488281 246.628906 164.847656 245.851562 164.847656 244.9375 L 164.847656 221.953125 C 164.847656 220.992188 165.488281 220.261719 166.449219 220.261719 C 167.40625 220.261719 168.046875 221.039062 168.046875 221.953125 L 168.046875 244.9375 C 168.046875 245.851562 167.363281 246.628906 166.449219 246.628906 Z M 166.449219 246.628906 " fill-opacity="1" fill-rule="nonzero"/><path fill="#f1f6e1" d="M 179.925781 246.628906 C 178.96875 246.628906 178.097656 245.851562 178.097656 244.9375 L 178.097656 221.953125 C 178.097656 220.992188 178.96875 220.261719 179.925781 220.261719 C 180.886719 220.261719 181.753906 221.039062 181.753906 221.953125 L 181.753906 244.9375 C 181.753906 245.851562 180.839844 246.628906 179.925781 246.628906 Z M 179.925781 246.628906 " fill-opacity="1" fill-rule="nonzero"/><path fill="#f1f6e1" d="M 192.722656 246.628906 C 191.761719 246.628906 190.894531 245.851562 190.894531 244.9375 L 190.894531 221.953125 C 190.894531 220.992188 191.761719 220.261719 192.722656 220.261719 C 193.679688 220.261719 194.550781 221.039062 194.550781 221.953125 L 194.550781 244.9375 C 194.550781 245.851562 193.636719 246.628906 192.722656 246.628906 Z M 192.722656 246.628906 " fill-opacity="1" fill-rule="nonzero"/><path fill="#f1f6e1" d="M 206.199219 246.628906 C 205.242188 246.628906 204.601562 245.851562 204.601562 244.9375 L 204.601562 221.953125 C 204.601562 220.992188 205.242188 220.261719 206.199219 220.261719 C 207.160156 220.261719 207.800781 221.039062 207.800781 221.953125 L 207.800781 244.9375 C 207.800781 245.851562 207.113281 246.628906 206.199219 246.628906 Z M 206.199219 246.628906 " fill-opacity="1" fill-rule="nonzero"/><path fill="#f1f6e1" d="M 199.574219 240.640625 C 198.617188 240.640625 197.746094 239.863281 197.746094 238.949219 L 197.746094 227.894531 C 197.746094 226.933594 198.617188 226.203125 199.574219 226.203125 C 200.535156 226.203125 201.402344 226.980469 201.402344 227.894531 L 201.402344 238.949219 C 201.402344 239.910156 200.488281 240.640625 199.574219 240.640625 Z M 199.574219 240.640625 " fill-opacity="1" fill-rule="nonzero"/><path fill="#f1f6e1" d="M 213.054688 240.59375 C 212.09375 240.59375 211.457031 239.820312 211.457031 238.90625 L 211.457031 227.800781 C 211.457031 226.84375 212.09375 226.109375 213.054688 226.109375 C 214.015625 226.109375 214.652344 226.886719 214.652344 227.800781 L 214.652344 238.859375 C 214.652344 239.820312 213.96875 240.59375 213.054688 240.59375 Z M 213.054688 240.59375 " fill-opacity="1" fill-rule="nonzero"/><path fill="#f1f6e1" d="M 186.550781 240.640625 C 185.59375 240.640625 184.953125 239.863281 184.953125 238.949219 L 184.953125 227.894531 C 184.953125 226.933594 185.59375 226.203125 186.550781 226.203125 C 187.511719 226.203125 188.152344 226.980469 188.152344 227.894531 L 188.152344 238.949219 C 188.152344 239.910156 187.464844 240.640625 186.550781 240.640625 Z M 186.550781 240.640625 " fill-opacity="1" fill-rule="nonzero"/></svg>